<svg width="500" height="500" viewBox="0 0 500 500" fill="none" xmlns="http://www.w3.org/2000/svg">
<path d="M500 382.4H0V382.65H500V382.4Z" fill="#EBEBEB"/>
<path d="M173.22 388.78H150.04V389.03H173.22V388.78Z" fill="#EBEBEB"/>
<path d="M458.77 394.14H402.1V394.39H458.77V394.14Z" fill="#EBEBEB"/>
<path d="M99.39 394.14H42.72V394.39H99.39V394.14Z" fill="#EBEBEB"/>
<path d="M237 337.8H43.91C40.76 337.795 38.21 335.24 38.21 332.09V60.66C38.237 57.53 40.78 55.005 43.91 55H237C240.153 55 242.71 57.556 242.71 60.71V332.09C242.71 335.243 240.153 337.8 237 337.8ZM43.91 55.2C40.898 55.206 38.46 57.648 38.46 60.66V332.09C38.46 335.102 40.898 337.544 43.91 337.55H237C240.013 337.545 242.454 335.103 242.46 332.09V60.66C242.454 57.647 240.013 55.206 237 55.2H43.91Z" fill="#EBEBEB"/>
<path d="M453.31 337.8H260.21C257.059 337.795 254.506 335.241 254.5 332.09V60.66C254.533 57.528 257.078 55.005 260.21 55H453.31C456.436 55.011 458.973 57.534 459 60.66V332.09C459 335.236 456.456 337.789 453.31 337.8ZM260.21 55.2C257.197 55.206 254.756 57.647 254.75 60.66V332.09C254.755 335.103 257.197 337.544 260.21 337.55H453.31C456.323 337.545 458.764 335.103 458.77 332.09V60.66C458.765 57.647 456.323 55.206 453.31 55.2H260.21Z" fill="#EBEBEB"/>
<path d="M468.142 293.292C466.051 287.298 449.556 295.453 442.912 305.38C438.459 311.993 435.741 319.056 434.479 328.542C434.626 317.7 434.804 306.084 434.967 295.119C436.322 292.385 439.404 286.074 441.627 281.079C449.03 264.398 466.633 258.195 472.712 247.663C480.681 233.863 480.634 213.171 473.85 205.706C467.957 199.216 448.434 243.094 446.235 247.996C438.677 264.863 436.477 277.377 435.06 289.496C435.215 279.189 435.37 269.733 435.501 262.392C435.911 238.579 436.43 230.92 436.663 228.566C437.484 227.412 438.444 226.073 438.986 225.352C443.71 219.273 454.195 212.032 459.43 203.189C467.081 190.28 465.842 174.83 460.475 169.115C454.868 163.098 444.948 177.316 439.69 191.402C434.432 205.488 436.67 218.971 435.199 230.672C434.889 232.995 434.572 241.684 434.27 253.773C432.675 240.763 429.492 232.051 423.599 223.927C416.343 213.937 410.086 201.779 404.107 203.351C398.129 204.923 401.35 221.015 406.082 232.314C410.287 242.381 431.057 252.41 434.115 260.494C433.759 276.88 433.433 297.666 433.201 316.971C431.567 306.989 432.69 306.129 425.984 290.866C421.996 281.775 405.64 270.569 403.697 276.818C401.776 282.944 404.711 294.862 410.883 303.148C415.862 309.816 426.913 309.808 429.469 313.943C430.065 314.911 432.032 318.589 433.163 320.735C432.892 344.331 432.776 365.163 432.907 372.264L433.976 372.334C433.93 370.506 434.061 358.503 434.27 342.612C436.949 334.163 455.016 329.23 460.6 320.441C466.446 311.22 470.643 300.486 468.142 293.292Z" fill="#069C56"/>
<path d="M451.522 413.999H416.416C414.508 413.966 412.87 409.968 412.495 404.424L410 368H458L455.506 404.424C455.127 410.037 453.455 414.056 451.522 413.999Z" fill="#675D5D"/>
<path d="M458.508 372.312H409.132C407.945 372.32 406.943 371.431 406.809 370.252L405.795 361.284C405.65 360.009 406.565 358.858 407.84 358.712C407.932 358.702 408.025 358.697 408.118 358.697H459.523C460.806 358.689 461.853 359.722 461.861 361.005C461.862 361.098 461.857 361.191 461.846 361.283L460.824 370.235C460.697 371.419 459.698 372.315 458.508 372.312Z" fill="#BBAC90"/>
<path d="M122.71 89.0081H52.908V165.644H122.71V89.0081Z" fill="#E6E6E6"/>
<path d="M128.683 89.0081H53.838V165.644H128.683V89.0081Z" fill="#F5F5F5"/>
<path d="M123.91 93.781H58.611V160.871H123.91V93.781Z" fill="white"/>
<path d="M81.484 151.186C73.706 143.415 73.7 130.809 81.471 123.031C81.475 123.027 81.479 123.023 81.484 123.018L101.036 103.466C108.81 111.246 108.81 123.854 101.036 131.634L81.484 151.186Z" fill="#F5F5F5"/>
<path d="M101.448 206.06H53.938V259.68H101.448V206.06Z" fill="#E6E6E6"/>
<path d="M108.318 206.06H55.098V259.68H108.318V206.06Z" fill="#F5F5F5"/>
<path d="M102.838 211.55H60.598V254.2H102.838V211.55Z" fill="white"/>
<path d="M90.366 236.693L85.522 241.537C83.413 243.646 79.994 243.646 77.885 241.537L73.041 236.693C70.932 234.584 70.932 231.165 73.041 229.056L77.885 224.212C79.994 222.103 83.413 222.103 85.522 224.212L90.366 229.056C92.475 231.165 92.475 234.584 90.366 236.693Z" fill="#F5F5F5"/>
<path d="M205.856 273.043H184.208V382.256H205.856V273.043Z" fill="#E6E6E6"/>
<path d="M184.208 273.051H90.795V382.264H184.208V273.051Z" fill="#F0F0F0"/>
<path d="M175.697 315.063H99.305V340.237H175.697V315.063Z" fill="#E6E6E6"/>
<path d="M175.697 345.854H99.305V371.028H175.697V345.854Z" fill="#E6E6E6"/>
<path d="M128.924 318.438H146.079C147.241 318.434 148.182 317.493 148.187 316.33C148.187 315.165 147.245 314.219 146.079 314.214H128.924C127.759 314.218 126.816 315.164 126.816 316.33C126.821 317.493 127.762 318.434 128.924 318.438Z" fill="#F0F0F0"/>
<path d="M175.697 284.279H99.305V309.453H175.697V284.279Z" fill="#E6E6E6"/>
<path d="M128.924 287.655H146.079C147.244 287.651 148.187 286.705 148.187 285.54C148.183 284.378 147.242 283.437 146.079 283.432H128.924C127.762 283.436 126.821 284.378 126.816 285.54C126.816 286.704 127.759 287.65 128.924 287.655Z" fill="#F0F0F0"/>
<path d="M128.924 349.23H146.079C147.244 349.226 148.187 348.28 148.187 347.114C148.183 345.952 147.242 345.011 146.079 345.006H128.924C127.762 345.01 126.821 345.951 126.816 347.114C126.816 348.28 127.759 349.225 128.924 349.23Z" fill="#F0F0F0"/>
<path d="M184.208 267.299H87.911V273.044H184.208V267.299Z" fill="#E6E6E6"/>
<path d="M208.882 267.307H184.208V273.052H208.882V267.307Z" fill="#E0E0E0"/>
<path d="M256.005 446.647C352.749 446.647 431.175 440.457 431.175 432.822C431.175 425.187 352.749 418.997 256.005 418.997C159.261 418.997 80.835 425.187 80.835 432.822C80.835 440.457 159.261 446.647 256.005 446.647Z" fill="#F5F5F5"/>
<path d="M397.641 128.831C396.197 124.059 394.288 119.441 391.939 115.043L395.492 103.416L372.549 80.473L360.91 84.038C356.528 81.663 351.911 79.748 347.134 78.324L341.433 67.592H308.95L303.236 78.324C298.461 79.752 293.845 81.667 289.46 84.038L277.833 80.473L254.865 103.441L258.418 115.068C256.059 119.461 254.149 124.08 252.716 128.856L241.971 134.558V167.041L252.703 172.755C254.133 177.528 256.044 182.143 258.405 186.531L254.852 198.146L277.82 221.114L289.447 217.561C293.836 219.924 298.456 221.831 303.235 223.25L308.949 233.995H341.432L347.133 223.263C351.906 221.828 356.522 219.914 360.909 217.549L372.548 221.102L395.516 198.134L391.963 186.507C394.305 182.113 396.206 177.499 397.64 172.731L408.372 167.017V134.534L397.641 128.831ZM325.185 209.66C292.66 209.66 266.293 183.293 266.293 150.768C266.293 118.243 292.66 91.876 325.185 91.876C357.71 91.876 384.077 118.243 384.077 150.768C384.076 183.293 357.71 209.66 325.185 209.66Z" fill="#1244C1"/>
<path d="M325.185 100.137C297.215 100.144 274.547 122.823 274.554 150.793C274.561 178.763 297.24 201.431 325.21 201.424C353.175 201.417 375.841 178.745 375.841 150.781C375.806 122.82 353.145 100.164 325.185 100.137ZM325.185 194.679C300.94 194.686 281.281 175.037 281.274 150.793C281.267 126.548 300.916 106.889 325.16 106.882C349.405 106.875 369.064 126.523 369.071 150.768C369.071 150.772 369.071 150.776 369.071 150.78C369.043 175.009 349.413 194.645 325.185 194.679Z" fill="#1244C1"/>
<path opacity="0.4" d="M397.641 128.831C396.197 124.059 394.288 119.441 391.939 115.043L395.492 103.416L372.549 80.473L360.91 84.038C356.528 81.663 351.911 79.748 347.134 78.324L341.433 67.592H308.95L303.236 78.324C298.461 79.752 293.845 81.667 289.46 84.038L277.833 80.473L254.865 103.441L258.418 115.068C256.059 119.461 254.149 124.08 252.716 128.856L241.971 134.558V167.041L252.703 172.755C254.133 177.528 256.044 182.143 258.405 186.531L254.852 198.146L277.82 221.114L289.447 217.561C293.836 219.924 298.456 221.831 303.235 223.25L308.949 233.995H341.432L347.133 223.263C351.906 221.828 356.522 219.914 360.909 217.549L372.548 221.102L395.516 198.134L391.963 186.507C394.305 182.113 396.206 177.499 397.64 172.731L408.372 167.017V134.534L397.641 128.831ZM325.185 209.66C292.66 209.66 266.293 183.293 266.293 150.768C266.293 118.243 292.66 91.876 325.185 91.876C357.71 91.876 384.077 118.243 384.077 150.768C384.076 183.293 357.71 209.66 325.185 209.66Z" fill="white"/>
<path opacity="0.4" d="M325.185 100.137C297.215 100.144 274.547 122.823 274.554 150.793C274.561 178.763 297.24 201.431 325.21 201.424C353.175 201.417 375.841 178.745 375.841 150.781C375.806 122.82 353.145 100.164 325.185 100.137ZM325.185 194.679C300.94 194.686 281.281 175.037 281.274 150.793C281.267 126.548 300.916 106.889 325.16 106.882C349.405 106.875 369.064 126.523 369.071 150.768C369.071 150.772 369.071 150.776 369.071 150.78C369.043 175.009 349.413 194.645 325.185 194.679Z" fill="white"/>
<path d="M193.317 193.119C192.551 190.588 191.535 188.14 190.284 185.81L192.168 179.641L179.99 167.454L173.821 169.338C171.491 168.087 169.043 167.071 166.512 166.305L163.479 160.654H146.244L143.221 166.305C140.69 167.069 138.241 168.085 135.912 169.338L129.743 167.454L117.556 179.641L119.44 185.81C118.196 188.142 117.184 190.59 116.417 193.119L110.719 196.152V213.388L116.417 216.411C117.182 218.941 118.195 221.389 119.44 223.72L117.556 229.889L129.743 242.076L135.912 240.192C138.243 241.438 140.691 242.45 143.221 243.215L146.244 248.866H163.479L166.512 243.215C169.041 242.448 171.489 241.436 173.821 240.192L179.99 242.076L192.177 229.889L190.293 223.72C191.546 221.391 192.562 218.943 193.326 216.411L199.024 213.388V196.152L193.317 193.119ZM154.862 229.248C141.338 229.248 130.374 218.284 130.374 204.76C130.374 191.236 141.338 180.272 154.862 180.272C168.386 180.272 179.35 191.235 179.35 204.76C179.35 218.285 168.386 229.248 154.862 229.248Z" fill="#263238"/>
<path d="M193.317 193.119C192.551 190.588 191.535 188.14 190.284 185.81L192.168 179.641L179.99 167.454L173.821 169.338C171.491 168.087 169.043 167.071 166.512 166.305L163.479 160.654H146.244L143.221 166.305C140.69 167.069 138.241 168.085 135.912 169.338L129.743 167.454L117.556 179.641L119.44 185.81C118.196 188.142 117.184 190.59 116.417 193.119L110.719 196.152V213.388L116.417 216.411C117.182 218.941 118.195 221.389 119.44 223.72L117.556 229.889L129.743 242.076L135.912 240.192C138.243 241.438 140.691 242.45 143.221 243.215L146.244 248.866H163.479L166.512 243.215C169.041 242.448 171.489 241.436 173.821 240.192L179.99 242.076L192.177 229.889L190.293 223.72C191.546 221.391 192.562 218.943 193.326 216.411L199.024 213.388V196.152L193.317 193.119ZM154.862 229.248C141.338 229.248 130.374 218.284 130.374 204.76C130.374 191.236 141.338 180.272 154.862 180.272C168.386 180.272 179.35 191.235 179.35 204.76C179.35 218.285 168.386 229.248 154.862 229.248Z" fill="#1244C1"/>
<path d="M154.862 196.651C150.378 196.651 146.743 200.286 146.743 204.77C146.743 209.254 150.378 212.889 154.862 212.889C159.346 212.889 162.981 209.254 162.981 204.77C162.98 200.286 159.346 196.651 154.862 196.651Z" fill="#263238"/>
<path opacity="0.4" d="M193.317 193.119C192.551 190.588 191.535 188.14 190.284 185.81L192.168 179.641L179.99 167.454L173.821 169.338C171.491 168.087 169.043 167.071 166.512 166.305L163.479 160.654H146.244L143.221 166.305C140.69 167.069 138.241 168.085 135.912 169.338L129.743 167.454L117.556 179.641L119.44 185.81C118.196 188.142 117.184 190.59 116.417 193.119L110.719 196.152V213.388L116.417 216.411C117.182 218.941 118.195 221.389 119.44 223.72L117.556 229.889L129.743 242.076L135.912 240.192C138.243 241.438 140.691 242.45 143.221 243.215L146.244 248.866H163.479L166.512 243.215C169.041 242.448 171.489 241.436 173.821 240.192L179.99 242.076L192.177 229.889L190.293 223.72C191.546 221.391 192.562 218.943 193.326 216.411L199.024 213.388V196.152L193.317 193.119ZM154.862 229.248C141.338 229.248 130.374 218.284 130.374 204.76C130.374 191.236 141.338 180.272 154.862 180.272C168.386 180.272 179.35 191.235 179.35 204.76C179.35 218.285 168.386 229.248 154.862 229.248Z" fill="white"/>
<path opacity="0.2" d="M154.862 196.651C150.378 196.651 146.743 200.286 146.743 204.77C146.743 209.254 150.378 212.889 154.862 212.889C159.346 212.889 162.981 209.254 162.981 204.77C162.98 200.286 159.346 196.651 154.862 196.651Z" fill="white"/>
<path d="M209.036 177.489L202.443 174.767L202.198 172.29C201.583 171.768 201.01 171.198 200.484 170.585L198.016 170.34L195.294 163.747L196.876 161.863C196.81 161.054 196.81 160.242 196.876 159.433L195.294 157.549L198.016 150.956L200.484 150.721C201.012 150.108 201.585 149.535 202.198 149.007L202.443 146.539L209.036 143.817L210.92 145.399C211.729 145.333 212.541 145.333 213.35 145.399L215.234 143.817L221.827 146.539L222.062 149.007C222.675 149.535 223.248 150.108 223.776 150.721L226.244 150.956L228.966 157.549L227.384 159.433C227.45 160.242 227.45 161.054 227.384 161.863L228.966 163.747L226.244 170.34L223.776 170.585C223.253 171.202 222.679 171.776 222.062 172.299L221.827 174.767L215.234 177.489L213.35 175.907C212.545 175.973 211.735 175.973 210.929 175.907L209.036 177.489ZM213.82 174.447L215.534 175.86L220.535 173.788L220.742 171.584L220.977 171.396C221.678 170.83 222.325 170.199 222.908 169.512L223.087 169.276L225.3 169.069L227.372 164.068L225.959 162.354V162.062C226.053 161.154 226.053 160.239 225.959 159.331V159.039L227.372 157.325L225.3 152.324L223.096 152.117L222.908 151.882C222.325 151.195 221.678 150.564 220.977 149.998L220.742 149.81L220.535 147.606L215.534 145.534L213.82 146.947H213.528C212.62 146.853 211.705 146.853 210.797 146.947H210.505L208.791 145.534L203.79 147.606L203.583 149.81L203.357 149.998C202.651 150.561 202.001 151.192 201.417 151.882L201.229 152.117L199.025 152.324L196.934 157.288L198.347 159.002V159.294C198.253 160.202 198.253 161.117 198.347 162.025V162.317L196.934 164.031L199.006 169.032L201.21 169.239L201.398 169.465C201.974 170.173 202.621 170.82 203.329 171.396L203.565 171.584L203.772 173.797L208.773 175.869L210.487 174.456H210.779C211.687 174.55 212.602 174.55 213.51 174.456L213.82 174.447Z" fill="#263238"/>
<path d="M215.092 167.723C211.185 169.342 206.706 167.487 205.087 163.58C203.468 159.673 205.323 155.194 209.23 153.575C213.137 151.956 217.616 153.811 219.235 157.718L219.236 157.721C220.856 161.622 219.007 166.097 215.107 167.717C215.102 167.719 215.096 167.721 215.092 167.723Z" fill="#263238"/>
<path d="M160.042 161.864C159.782 161.864 159.571 161.653 159.571 161.393V159.038C159.571 158.778 159.782 158.567 160.042 158.567C160.302 158.567 160.513 158.778 160.513 159.038V161.393C160.513 161.653 160.302 161.864 160.042 161.864Z" fill="#1244C1"/>
<path d="M160.042 154.79C159.782 154.79 159.571 154.579 159.571 154.319V149.6C159.571 149.34 159.782 149.129 160.042 149.129C160.302 149.129 160.513 149.34 160.513 149.6V154.319C160.513 154.58 160.302 154.79 160.042 154.79ZM160.042 145.353C159.782 145.353 159.571 145.142 159.571 144.882V140.164C159.571 139.904 159.782 139.693 160.042 139.693C160.302 139.693 160.513 139.904 160.513 140.164V144.882C160.513 145.142 160.302 145.353 160.042 145.353ZM160.042 135.915C159.782 135.915 159.571 135.704 159.571 135.444V130.725C159.571 130.465 159.782 130.254 160.042 130.254C160.302 130.254 160.513 130.465 160.513 130.725V135.444C160.513 135.705 160.302 135.915 160.042 135.915ZM160.042 126.445C159.782 126.445 159.571 126.267 159.571 126.007V125.942C159.571 124.323 159.838 122.734 160.364 121.22C160.45 120.974 160.719 120.845 160.963 120.93C161.209 121.015 161.339 121.284 161.253 121.529C160.761 122.944 160.512 124.428 160.512 125.941C160.513 126.202 160.302 126.445 160.042 126.445ZM163.079 117.735C162.976 117.735 162.873 117.701 162.786 117.632C162.583 117.47 162.55 117.174 162.712 116.97C163.733 115.692 164.952 114.606 166.335 113.741C166.555 113.603 166.847 113.67 166.984 113.89C167.122 114.111 167.055 114.401 166.834 114.539C165.541 115.347 164.402 116.363 163.447 117.558C163.354 117.674 163.217 117.735 163.079 117.735ZM170.928 112.83C170.712 112.83 170.517 112.681 170.468 112.461C170.412 112.207 170.572 111.956 170.826 111.899C171.847 111.673 172.9 111.558 173.955 111.558H175.622C175.882 111.558 176.093 111.769 176.093 112.029C176.093 112.289 175.882 112.5 175.622 112.5H173.955C172.969 112.5 171.985 112.607 171.031 112.819C170.996 112.827 170.961 112.83 170.928 112.83ZM251.121 112.5H246.403C246.143 112.5 245.932 112.289 245.932 112.029C245.932 111.769 246.143 111.558 246.403 111.558H251.121C251.381 111.558 251.591 111.769 251.591 112.029C251.591 112.289 251.382 112.5 251.121 112.5ZM241.684 112.5H236.965C236.705 112.5 236.494 112.289 236.494 112.029C236.494 111.769 236.705 111.558 236.965 111.558H241.684C241.944 111.558 242.155 111.769 242.155 112.029C242.155 112.289 241.944 112.5 241.684 112.5ZM232.246 112.5H227.527C227.267 112.5 227.056 112.289 227.056 112.029C227.056 111.769 227.267 111.558 227.527 111.558H232.246C232.506 111.558 232.717 111.769 232.717 112.029C232.717 112.289 232.507 112.5 232.246 112.5ZM222.809 112.5H218.091C217.831 112.5 217.62 112.289 217.62 112.029C217.62 111.769 217.831 111.558 218.091 111.558H222.809C223.069 111.558 223.28 111.769 223.28 112.029C223.28 112.289 223.069 112.5 222.809 112.5ZM213.372 112.5H208.653C208.393 112.5 208.182 112.289 208.182 112.029C208.182 111.769 208.393 111.558 208.653 111.558H213.372C213.632 111.558 213.843 111.769 213.843 112.029C213.843 112.289 213.632 112.5 213.372 112.5ZM203.934 112.5H199.215C198.955 112.5 198.744 112.289 198.744 112.029C198.744 111.769 198.955 111.558 199.215 111.558H203.934C204.194 111.558 204.405 111.769 204.405 112.029C204.405 112.289 204.194 112.5 203.934 112.5ZM194.496 112.5H189.778C189.518 112.5 189.307 112.289 189.307 112.029C189.307 111.769 189.518 111.558 189.778 111.558H194.496C194.756 111.558 194.967 111.769 194.967 112.029C194.967 112.289 194.757 112.5 194.496 112.5ZM185.059 112.5H180.34C180.08 112.5 179.869 112.289 179.869 112.029C179.869 111.769 180.08 111.558 180.34 111.558H185.059C185.319 111.558 185.53 111.769 185.53 112.029C185.53 112.289 185.319 112.5 185.059 112.5Z" fill="#1244C1"/>
<path d="M258.209 112.5H255.854C255.594 112.5 255.383 112.289 255.383 112.029C255.383 111.769 255.594 111.558 255.854 111.558H258.209C258.469 111.558 258.68 111.769 258.68 112.029C258.68 112.289 258.469 112.5 258.209 112.5Z" fill="#1244C1"/>
<path d="M159.751 431.763H164.684L164.684 277.694H159.751L159.751 431.763Z" fill="#263238"/>
<path d="M281.458 346.806H362.875C364.923 346.806 366.583 345.146 366.583 343.098V339.227C366.583 337.179 364.923 335.519 362.875 335.519H281.458V346.806Z" fill="#1244C1"/>
<path d="M359.737 432.621L353.837 339.367" stroke="#1244C1" stroke-width="2.8255" stroke-miterlimit="10" stroke-linecap="round" stroke-linejoin="round"/>
<path d="M337.145 437.245L331.246 343.99" stroke="#1244C1" stroke-width="2.8255" stroke-miterlimit="10" stroke-linecap="round" stroke-linejoin="round"/>
<path d="M277.941 432.621L283.841 339.367" stroke="#1244C1" stroke-width="2.8255" stroke-miterlimit="10" stroke-linecap="round" stroke-linejoin="round"/>
<path d="M300.533 437.245L306.432 343.99" stroke="#1244C1" stroke-width="2.8255" stroke-miterlimit="10" stroke-linecap="round" stroke-linejoin="round"/>
<path d="M288.683 339.367H370.1C372.148 339.367 373.808 337.707 373.808 335.659V331.788C373.808 329.74 372.148 328.08 370.1 328.08H288.683V339.367Z" fill="#1244C1"/>
<path opacity="0.2" d="M288.683 339.367H370.1C372.148 339.367 373.808 337.707 373.808 335.659V331.788C373.808 329.74 372.148 328.08 370.1 328.08H288.683V339.367Z" fill="black"/>
<path d="M288.097 435.443H293.03V281.374H288.097V435.443Z" fill="#263238"/>
<path d="M304.901 293.099C304.901 293.099 248.55 295.216 239.187 317.844C239.187 317.844 240.487 385.208 248.03 407.316L264.156 405.495L261.577 339.983L319.868 293.099H304.901Z" fill="#263238"/>
<path opacity="0.2" d="M304.901 293.099C304.901 293.099 248.55 295.216 239.187 317.844C239.187 317.844 240.487 385.208 248.03 407.316L264.156 405.495L261.577 339.983L319.868 293.099H304.901Z" fill="black"/>
<path d="M261.485 422.349H251.421L251.285 415.643L251.183 410.385L261.016 410.982L261.212 415.643L261.485 422.349Z" fill="#B55B52"/>
<path opacity="0.2" d="M261.212 415.643H251.285L251.183 410.385L261.016 410.982L261.212 415.643Z" fill="black"/>
<path d="M265.987 412.52L244.433 413.172L240.498 405.171L265.395 404.941L265.987 412.52Z" fill="#1244C1"/>
<path d="M248.842 423.867C248.842 423.867 249.356 417.961 247.305 418.781C245.234 419.609 247.541 422.625 248.842 423.867Z" stroke="#1244C1" stroke-width="0.9418" stroke-miterlimit="10"/>
<path d="M248.842 423.867C248.842 423.867 244.407 420.772 243.283 422.349C242.16 423.926 248.842 423.867 248.842 423.867Z" stroke="#1244C1" stroke-width="0.9418" stroke-miterlimit="10"/>
<path d="M252.351 420.99L260.309 421.074C261.468 421.086 262.435 421.998 262.528 423.165L263.088 430.241C263.192 431.553 262.162 432.653 260.86 432.615C256.529 432.49 247.617 432.255 244.461 432.347C240.228 432.47 234.222 432.536 233.363 430.931C232.504 429.326 233.871 428.271 233.871 428.271C233.871 428.271 245.396 427.202 250.703 421.72C251.141 421.268 251.72 420.983 252.351 420.99Z" fill="#263238"/>
<path d="M355.463 293.099C355.463 293.099 356.526 306.233 356.127 316.383C355.667 328.081 330.48 338.392 293.807 332.41C293.807 332.41 290.946 352.177 280.802 370.383C270.658 388.59 254.793 415.639 254.793 415.639L239.188 405.495C239.188 405.495 259.735 348.535 263.637 332.669C267.538 316.803 269.099 309.261 280.283 304.319C291.467 299.377 315.916 293.099 315.916 293.099H355.463Z" fill="#263238"/>
<path d="M248.842 412.657L246.993 415.503L242.92 421.775L235.106 417.216L239.204 410.859L240.789 408.397L248.842 412.657Z" fill="#B55B52"/>
<path opacity="0.2" d="M248.842 412.657L246.993 415.503L239.204 410.859L240.789 408.397L248.842 412.657Z" fill="black"/>
<path d="M258.87 410.385L238.422 398.137L235.106 406.309L254.524 417.517L258.87 410.385Z" fill="#1244C1"/>
<path d="M229.765 417.517C229.765 417.517 231.255 412.395 229.579 412.302C227.902 412.209 229.765 417.517 229.765 417.517Z" stroke="#1244C1" stroke-width="0.9418" stroke-miterlimit="10"/>
<path d="M229.367 417.331C229.367 417.331 227.064 411.771 225.202 413.015C223.34 414.258 229.367 417.331 229.367 417.331Z" stroke="#1244C1" stroke-width="0.9418" stroke-miterlimit="10"/>
<path d="M236.119 416.662L242.94 420.687C243.933 421.273 244.306 422.526 243.795 423.559L240.696 429.826C240.122 430.988 238.676 431.407 237.572 430.728C233.901 428.471 226.334 423.844 223.565 422.354C219.852 420.355 214.639 417.427 214.711 415.642C214.783 413.857 216.496 413.643 216.496 413.643C216.496 413.643 226.976 418.463 234.328 416.461C234.935 416.296 235.578 416.343 236.119 416.662Z" fill="#263238"/>
<path d="M292.156 235.725C292.156 235.725 290.061 258.661 290.904 264.564C290.904 264.564 268.98 267.768 257.849 266.25L250.428 264.395L241.152 266.658L243.682 274.008H251.102C251.102 274.008 256.499 275.526 258.86 274.008C258.86 274.008 277.411 277.718 288.373 276.538C299.335 275.357 302.73 271.189 303.214 262.877C303.679 254.89 308.952 237.059 304.735 233.011L292.156 235.725Z" fill="#F4A69E"/>
<path d="M367.437 238.297C367.437 238.297 359.03 216.941 350.847 212.115C342.665 207.29 304.794 216.521 304.794 216.521C304.794 216.521 288.539 221.753 287.608 247.142L302.539 253.472L304.9 293.099H355.462L355.19 241.766L367.437 238.297Z" fill="#1244C1"/>
<path d="M305.484 174.657C305.484 174.657 300.476 174.033 299.12 170.278C297.764 166.523 302.977 168.421 302.54 161.642C302.103 154.864 309.889 153.237 315.553 156.219C321.217 159.201 330.165 155.948 333.554 160.015C336.943 164.082 335.452 167.878 335.452 167.878C335.452 167.878 345.168 178.863 332.854 186.385C320.54 193.908 305.484 174.657 305.484 174.657Z" fill="#263238"/>
<path d="M334.884 211.208C329.482 219.439 324.625 220.291 318.106 220.283C310.804 220.257 313.249 215.085 313.249 215.085C316.308 213.56 318.54 211.915 318.89 208.149C318.958 207.391 318.975 206.649 318.941 205.951C318.822 203.148 318.072 200.975 318.072 200.975C307.719 201.912 304.072 196.859 302.777 187.333C301.49 177.807 305.836 170.283 305.836 170.283C311.835 177.338 323.125 171.808 323.125 171.808C319.955 180.985 327.718 184.274 327.718 184.274C330.769 182.391 333.12 184.036 332.89 187.682C332.651 191.329 329.482 192.275 329.482 192.275C328.894 208.499 334.884 211.208 334.884 211.208Z" fill="#F4A69E"/>
<path d="M308.691 191.059C308.522 191.059 308.381 190.927 308.372 190.756C308.362 190.58 308.498 190.429 308.673 190.42C312.288 190.225 313.701 188.49 313.715 188.473C313.824 188.335 314.024 188.311 314.163 188.419C314.302 188.528 314.327 188.727 314.219 188.866C314.157 188.947 312.636 190.846 308.709 191.058C308.703 191.059 308.697 191.059 308.691 191.059Z" fill="#263238"/>
<path d="M308.691 187.119L308.105 181.05L305.484 186.568C305.484 186.568 306.863 187.809 308.691 187.119Z" fill="#FFD3CE"/>
<path d="M312.726 181.05C312.726 181.812 313.081 182.429 313.519 182.429C313.957 182.429 314.312 181.811 314.312 181.05C314.312 180.288 313.957 179.671 313.519 179.671C313.081 179.67 312.726 180.288 312.726 181.05Z" fill="#263238"/>
<path d="M303.898 181.05C303.898 181.812 304.253 182.429 304.691 182.429C305.129 182.429 305.484 181.811 305.484 181.05C305.484 180.288 305.129 179.671 304.691 179.671C304.253 179.67 303.898 180.288 303.898 181.05Z" fill="#263238"/>
<path d="M317.968 177.958C317.835 177.958 317.703 177.895 317.62 177.778C317.566 177.703 316.263 175.942 313.216 176.502C312.987 176.546 312.763 176.392 312.72 176.16C312.677 175.929 312.831 175.707 313.063 175.664C316.664 175.001 318.251 177.193 318.316 177.287C318.452 177.48 318.404 177.745 318.212 177.88C318.137 177.934 318.053 177.958 317.968 177.958Z" fill="#263238"/>
<path d="M303.346 177.44C303.28 177.44 303.215 177.425 303.152 177.393C302.942 177.286 302.859 177.029 302.966 176.82C303.92 174.95 306.204 175.233 306.299 175.248C306.532 175.28 306.695 175.493 306.664 175.726C306.633 175.959 306.417 176.125 306.186 176.093C306.114 176.085 304.402 175.879 303.725 177.208C303.65 177.355 303.5 177.44 303.346 177.44Z" fill="#263238"/>
<path d="M302.672 185.784C300.062 185.784 297.938 183.66 297.938 181.05C297.938 178.44 300.062 176.316 302.672 176.316C305.282 176.316 307.407 178.44 307.407 181.05C307.407 183.66 305.283 185.784 302.672 185.784ZM302.672 176.955C300.415 176.955 298.577 178.792 298.577 181.05C298.577 183.308 300.414 185.145 302.672 185.145C304.93 185.145 306.768 183.308 306.768 181.05C306.768 178.792 304.931 176.955 302.672 176.955Z" fill="white"/>
<path d="M313.967 185.784C311.357 185.784 309.233 183.66 309.233 181.05C309.233 178.44 311.357 176.316 313.967 176.316C316.577 176.316 318.702 178.44 318.702 181.05C318.702 183.66 316.577 185.784 313.967 185.784ZM313.967 176.955C311.709 176.955 309.872 178.792 309.872 181.05C309.872 183.308 311.709 185.145 313.967 185.145C316.225 185.145 318.063 183.308 318.063 181.05C318.063 178.792 316.225 176.955 313.967 176.955Z" fill="white"/>
<path d="M307.407 181.05H309.233" stroke="white" stroke-width="0.9418" stroke-miterlimit="10"/>
<path d="M318.394 181.916L327.258 184.046" stroke="white" stroke-width="0.9418" stroke-miterlimit="10" stroke-linecap="round" stroke-linejoin="round"/>
<path opacity="0.2" d="M321.498 200.037C321.498 200.037 320.578 203.539 318.942 205.951C318.823 203.148 318.073 200.975 318.073 200.975L321.498 200.037Z" fill="black"/>
<path opacity="0.2" d="M302.54 253.472L302.539 247.142L299.982 252.387L302.54 253.472Z" fill="black"/>
<path opacity="0.2" d="M344.272 245.022L342.321 233.627L341.77 246.025L344.272 245.022Z" fill="black"/>
<path d="M358.223 268.921C358.095 277.246 354.346 281.404 343.379 282.58C332.421 283.764 313.871 280.049 313.871 280.049C311.511 281.574 306.109 280.049 306.109 280.049H298.687L296.165 272.704L305.436 270.437L312.858 272.295C323.986 273.812 345.911 270.608 345.911 270.608C345.28 266.186 344.571 251.763 344.273 245.023L357.35 241.155C358.636 249.948 358.334 261.737 358.223 268.921Z" fill="#F4A69E"/>
<path d="M164.766 225.416L173.624 270.526C174.02 272.544 175.789 273.999 177.845 273.999H252.776C255.454 273.999 257.481 271.579 257.011 268.942L248.971 223.832C248.605 221.78 246.82 220.285 244.736 220.285H168.987C166.279 220.285 164.244 222.758 164.766 225.416Z" fill="#1244C1"/>
<path opacity="0.2" d="M245.874 220.285L255.235 273.999C256.632 273.999 257.689 272.737 257.444 271.362L248.67 222.136C248.479 221.066 247.549 220.286 246.461 220.286L245.874 220.285Z" fill="black"/>
<path d="M174.505 278.306H289.74C289.74 277.119 289.253 276.038 288.477 275.262C287.701 274.486 286.62 273.999 285.433 273.999H178.827C176.438 273.999 174.505 275.932 174.505 278.306Z" fill="#1244C1"/>
<path opacity="0.2" d="M251.673 278.306H289.74C289.74 277.119 289.253 276.038 288.477 275.262C287.701 274.486 286.62 273.999 285.433 273.999H255.996C253.606 273.999 251.673 275.932 251.673 278.306Z" fill="black"/>
<path opacity="0.4" d="M201.731 248.819C202.537 254.434 206.418 258.522 210.399 257.95C214.38 257.378 216.954 252.364 216.148 246.749C215.342 241.135 211.462 237.046 207.481 237.618C203.498 238.19 200.925 243.205 201.731 248.819Z" fill="white"/>
<path opacity="0.2" d="M174.505 278.306H289.74C289.74 277.119 289.253 276.038 288.477 275.262C287.701 274.486 286.62 273.999 285.433 273.999H178.827C176.438 273.999 174.505 275.932 174.505 278.306Z" fill="black"/>
<path d="M127.303 283.893H326.301C326.301 279.959 323.112 276.77 319.178 276.77H134.426C130.492 276.77 127.303 279.959 127.303 283.893Z" fill="#263238"/>
<path d="M91.0752 401.633C99.3416 401.633 106.043 397.764 106.043 392.991C106.043 388.218 99.3416 384.349 91.0752 384.349C82.8088 384.349 76.1075 388.218 76.1075 392.991C76.1075 397.764 82.8088 401.633 91.0752 401.633Z" fill="url(#paint0_linear_1_1086)"/>
<path d="M91.0752 403.377C98.9692 403.377 105.369 399.682 105.369 395.125C105.369 390.567 98.9692 386.873 91.0752 386.873C83.1811 386.873 76.7818 390.567 76.7818 395.125C76.7818 399.682 83.1811 403.377 91.0752 403.377Z" fill="#4A2B08"/>
<path d="M80.3449 431.424C86.2747 434.847 95.8891 434.847 101.819 431.424C103.692 430.342 104.97 429.048 105.659 427.676C105.903 426.97 106.043 426.232 106.043 425.47C106.043 420.572 106.043 392.992 106.043 392.991C106.043 395.203 104.582 397.415 101.659 399.102C95.8134 402.477 86.3364 402.477 80.4911 399.102C77.5685 397.415 76.107 395.203 76.107 392.991C76.107 392.991 76.107 420.572 76.107 425.47C76.107 426.206 76.2386 426.919 76.4671 427.602C77.148 429.001 78.438 430.323 80.3449 431.424Z" fill="url(#paint1_linear_1_1086)"/>
<path d="M101.819 431.424C95.8892 434.847 86.2748 434.847 80.345 431.424C78.4381 430.323 77.1481 429.001 76.4675 427.602C77.7603 431.47 82.215 434.401 84.2495 435.195C84.2651 435.201 84.2806 435.204 84.2961 435.209C88.1495 437.209 94.0013 437.209 97.8547 435.209C97.8698 435.204 97.8853 435.201 97.9008 435.195C99.9226 434.406 104.336 431.507 105.66 427.675C104.97 429.048 103.693 430.342 101.819 431.424Z" fill="url(#paint2_linear_1_1086)"/>
<path d="M91.0765 384.349V384.737C95.0067 384.737 98.6959 385.618 101.465 387.217C104.167 388.777 105.655 390.827 105.655 392.991C105.655 395.155 104.167 397.206 101.465 398.766C98.6959 400.365 95.0063 401.245 91.075 401.245C87.144 401.245 83.454 400.365 80.685 398.766C77.9831 397.206 76.4948 395.155 76.4948 392.991C76.4948 390.827 77.9827 388.777 80.685 387.217C83.4536 385.618 87.1436 384.738 91.075 384.737L91.0765 384.349ZM91.0753 384.349C87.2453 384.35 83.414 385.193 80.4914 386.881C74.6461 390.255 74.6461 395.727 80.4914 399.102C83.4144 400.789 87.2441 401.633 91.0753 401.633C94.9054 401.633 98.7367 400.789 101.659 399.102C107.505 395.727 107.505 390.256 101.659 386.881C98.7363 385.193 94.9062 384.349 91.0753 384.349Z" fill="#FFF869"/>
<path d="M91.9365 369.989C92.5549 372.999 91.8038 374.676 90.5072 374.943C89.2102 375.21 87.8588 373.964 87.2404 370.954C86.622 367.944 88.2678 364.043 88.2678 364.043C88.2678 364.043 91.318 366.979 91.9365 369.989Z" fill="#4A7A00"/>
<path d="M92.1442 362.257C92.7627 365.267 92.0115 366.944 90.7149 367.211C89.4179 367.477 88.0666 366.231 87.4482 363.222C86.8298 360.212 88.4755 356.311 88.4755 356.311C88.4755 356.311 91.5258 359.247 92.1442 362.257Z" fill="#4A7A00"/>
<path d="M108.57 378.981C105.904 380.51 104.075 380.321 103.417 379.172C102.759 378.024 103.519 376.351 106.185 374.822C108.851 373.294 113.071 373.638 113.071 373.638C113.071 373.638 111.235 377.453 108.57 378.981Z" fill="#4A7A00"/>
<path d="M97.5717 388.243C93.5636 386.111 92.3616 383.676 93.2799 381.949C94.1983 380.223 96.8892 379.858 100.897 381.989C104.905 384.121 107.794 389.668 107.794 389.668C107.794 389.668 101.58 390.374 97.5717 388.243Z" fill="#4A7A00"/>
<path d="M102.693 371.707C100.434 373.79 98.6089 374.013 97.7115 373.039C96.8141 372.066 97.1839 370.265 99.443 368.182C101.702 366.099 105.893 365.496 105.893 365.496C105.893 365.496 104.952 369.624 102.693 371.707Z" fill="#4A7A00"/>
<path d="M93.1291 383.266C88.4858 387.547 84.736 388.004 82.8916 386.004C81.0471 384.004 81.8068 380.303 86.4501 376.022C91.0934 371.741 99.706 370.502 99.706 370.502C99.706 370.502 97.7723 378.986 93.1291 383.266Z" fill="#4A7A00"/>
<path d="M74.6879 365.493C76.9867 368.356 77.1027 370.55 75.8689 371.54C74.6352 372.531 72.5188 371.943 70.22 369.079C67.9212 366.216 67.5449 361.17 67.5449 361.17C67.5449 361.17 72.3896 362.629 74.6879 365.493Z" fill="#6DB500"/>
<path d="M95.7647 359.291C96.4243 362.904 95.4831 364.888 93.9269 365.173C92.3707 365.457 90.7885 363.933 90.1286 360.321C89.469 356.708 91.5378 352.091 91.5378 352.091C91.5378 352.091 95.1052 355.678 95.7647 359.291Z" fill="#6DB500"/>
<path d="M71.5007 388.07C75.1054 387.37 77.1003 388.289 77.4022 389.842C77.7036 391.395 76.1975 392.994 72.5928 393.695C68.9882 394.395 64.348 392.377 64.348 392.377C64.348 392.377 67.896 388.77 71.5007 388.07Z" fill="#6DB500"/>
<path d="M101.492 375.699C99.0862 378.473 96.9488 378.981 95.7535 377.944C94.5581 376.908 94.7572 374.72 97.1626 371.946C99.568 369.171 104.465 367.897 104.465 367.897C104.465 367.897 103.897 372.924 101.492 375.699Z" fill="#6DB500"/>
<path d="M89.8275 374.478C89.6436 378.146 88.2737 379.862 86.6935 379.783C85.1132 379.704 83.9218 377.859 84.1057 374.191C84.2896 370.524 87.3593 366.502 87.3593 366.502C87.3593 366.502 90.0114 370.811 89.8275 374.478Z" fill="#6DB500"/>
<path d="M105.625 395.097C102.329 393.48 101.292 391.543 101.99 390.123C102.686 388.702 104.852 388.336 108.149 389.954C111.446 391.571 113.928 395.98 113.928 395.98C113.928 395.98 108.922 396.715 105.625 395.097Z" fill="#6DB500"/>
<path d="M89.2706 402.458C88.5951 398.848 89.5278 396.86 91.0832 396.569C92.6382 396.278 94.227 397.795 94.9025 401.404C95.5779 405.014 93.529 409.64 93.529 409.64C93.529 409.64 89.9461 406.067 89.2706 402.458Z" fill="#6DB500"/>
<path d="M112.868 380.784C109.375 381.916 107.283 381.246 106.795 379.741C106.307 378.236 107.608 376.466 111.102 375.334C114.595 374.202 119.445 375.641 119.445 375.641C119.445 375.641 116.361 379.652 112.868 380.784Z" fill="#6DB500"/>
<path d="M91.5252 386.572C94.4494 388.794 95.0938 390.894 94.1367 392.153C93.1795 393.413 90.984 393.356 88.0598 391.135C85.1357 388.914 83.5477 384.11 83.5477 384.11C83.5477 384.11 88.6011 384.351 91.5252 386.572Z" fill="#6DB500"/>
<path d="M103.858 366.478C101.157 367.942 99.3332 367.71 98.7024 366.546C98.0715 365.382 98.8719 363.727 101.573 362.263C104.275 360.799 108.485 361.244 108.485 361.244C108.485 361.244 106.56 365.014 103.858 366.478Z" fill="#5B9600"/>
<path d="M81.7301 358.064C83.3867 360.652 83.287 362.487 82.172 363.201C81.0569 363.915 79.3487 363.237 77.692 360.649C76.0354 358.061 76.1731 353.829 76.1731 353.829C76.1731 353.829 80.0734 355.476 81.7301 358.064Z" fill="#5B9600"/>
<path d="M79.0185 397.641C81.6598 396.071 83.4911 396.231 84.1673 397.369C84.8439 398.507 84.1095 400.192 81.4682 401.762C78.8268 403.333 74.6022 403.055 74.6022 403.055C74.6022 403.055 76.3772 399.211 79.0185 397.641Z" fill="#5B9600"/>
<path d="M68.8589 382.603C71.8933 383.088 73.1973 384.384 72.9882 385.691C72.7791 386.998 71.136 387.823 68.1016 387.337C65.0673 386.852 61.9999 383.933 61.9999 383.933C61.9999 383.933 65.8246 382.118 68.8589 382.603Z" fill="#5B9600"/>
<path d="M112.73 388.48C109.796 387.566 108.69 386.098 109.084 384.834C109.478 383.569 111.221 382.989 114.155 383.902C117.089 384.816 119.708 388.142 119.708 388.142C119.708 388.142 115.664 389.393 112.73 388.48Z" fill="#5B9600"/>
<path d="M99.6368 400.918C97.4448 398.765 97.1324 396.954 98.0601 396.009C98.9877 395.065 100.805 395.345 102.997 397.498C105.189 399.652 105.998 403.807 105.998 403.807C105.998 403.807 101.829 403.072 99.6368 400.918Z" fill="#5B9600"/>
<path d="M104.694 385.859C102.493 388.002 100.675 388.275 99.7514 387.326C98.828 386.378 99.1482 384.568 101.35 382.424C103.552 380.281 107.724 379.563 107.724 379.563C107.724 379.563 106.896 383.715 104.694 385.859Z" fill="#5B9600"/>
<path d="M95.9722 382.727C95.7052 385.788 94.5064 387.182 93.1877 387.067C91.8689 386.952 90.9293 385.372 91.1962 382.311C91.4631 379.249 94.1545 375.981 94.1545 375.981C94.1545 375.981 96.2391 379.666 95.9722 382.727Z" fill="#5B9600"/>
<path d="M80.7865 372.521C83.3266 374.25 83.9559 375.977 83.2106 377.072C82.4653 378.166 80.6279 378.213 78.0882 376.484C75.5485 374.754 74.0129 370.808 74.0129 370.808C74.0129 370.808 78.2465 370.791 80.7865 372.521Z" fill="#5B9600"/>
<path d="M83.3361 388.545C86.3324 387.863 88.0255 388.578 88.3192 389.87C88.6129 391.16 87.3962 392.538 84.3999 393.22C81.4035 393.902 77.4687 392.339 77.4687 392.339C77.4687 392.339 80.3397 389.227 83.3361 388.545Z" fill="#5B9600"/>
<path d="M94.5712 367.724C95.1897 370.734 94.4386 372.412 93.1419 372.678C91.8449 372.945 90.4936 371.699 89.8752 368.689C89.2567 365.679 90.9025 361.778 90.9025 361.778C90.9025 361.778 93.9528 364.714 94.5712 367.724Z" fill="#5B9600"/>
<path d="M108.29 375.069C105.846 376.932 104.009 376.983 103.206 375.93C102.404 374.877 102.94 373.119 105.383 371.256C107.827 369.393 112.056 369.184 112.056 369.184C112.056 369.184 110.734 373.206 108.29 375.069Z" fill="#5B9600"/>
<path d="M80.5894 378.682C83.6602 378.796 85.1116 379.923 85.0627 381.246C85.0138 382.569 83.4829 383.587 80.4121 383.473C77.3413 383.36 73.9426 380.835 73.9426 380.835C73.9426 380.835 77.5186 378.568 80.5894 378.682Z" fill="#5B9600"/>
<path d="M86.484 365.947C86.4196 369.019 85.315 370.489 83.9916 370.461C82.6678 370.433 81.6262 368.919 81.6909 365.847C81.7554 362.775 84.2252 359.336 84.2252 359.336C84.2252 359.336 86.5484 362.875 86.484 365.947Z" fill="#5B9600"/>
<path d="M110.202 384.77C107.249 385.619 105.518 385 105.153 383.728C104.787 382.456 105.924 381.011 108.877 380.162C111.83 379.313 115.847 380.652 115.847 380.652C115.847 380.652 113.156 383.921 110.202 384.77Z" fill="#528700"/>
<path d="M96.6168 395.218C93.8742 393.832 93.0261 392.201 93.6232 391.02C94.2203 389.838 96.036 389.553 98.7786 390.938C101.521 392.324 103.555 396.038 103.555 396.038C103.555 396.038 99.3594 396.604 96.6168 395.218Z" fill="#528700"/>
<path d="M86.7911 392.036C89.7107 388.934 92.2115 388.447 93.5481 389.705C94.8847 390.962 94.5503 393.489 91.6307 396.59C88.7112 399.692 82.9758 400.938 82.9758 400.938C82.9758 400.938 83.8716 395.137 86.7911 392.036Z" fill="#528700"/>
<path d="M91.0128 383.195C90.5876 386.239 89.3181 387.568 88.0071 387.385C86.6957 387.202 85.8395 385.575 86.2647 382.532C86.6899 379.489 89.547 376.364 89.547 376.364C89.547 376.364 91.4384 380.152 91.0128 383.195Z" fill="#528700"/>
<path d="M73.1694 370.175C75.7122 371.9 76.3446 373.626 75.6016 374.722C74.8583 375.817 73.0212 375.868 70.478 374.143C67.9353 372.418 66.3927 368.475 66.3927 368.475C66.3927 368.475 70.6263 368.45 73.1694 370.175Z" fill="#528700"/>
<path d="M79.45 366.02C80.7753 368.792 80.4505 370.601 79.256 371.172C78.0614 371.743 76.4497 370.86 75.1244 368.088C73.7991 365.315 74.4567 361.133 74.4567 361.133C74.4567 361.133 78.1246 363.247 79.45 366.02Z" fill="#528700"/>
<path d="M99.9653 365.291C99.4835 368.326 98.1892 369.632 96.8817 369.424C95.5742 369.216 94.7482 367.574 95.2305 364.539C95.7127 361.504 98.6276 358.434 98.6276 358.434C98.6276 358.434 100.448 362.256 99.9653 365.291Z" fill="#528700"/>
<path d="M100.854 380.952C98.3831 382.779 96.5452 382.803 95.758 381.739C94.9712 380.674 95.533 378.924 98.0037 377.097C100.474 375.271 104.706 375.124 104.706 375.124C104.706 375.124 103.325 379.126 100.854 380.952Z" fill="#528700"/>
<path d="M80.0528 382.856C83.0607 382.229 84.7407 382.975 85.0107 384.271C85.2807 385.567 84.0392 386.922 81.0308 387.549C78.0225 388.176 74.1171 386.541 74.1171 386.541C74.1171 386.541 77.0448 383.483 80.0528 382.856Z" fill="#528700"/>
<path d="M74.6677 393.914C77.0344 391.954 78.868 391.829 79.7126 392.848C80.5572 393.868 80.0924 395.647 77.7262 397.607C75.3595 399.567 71.143 399.947 71.143 399.947C71.143 399.947 72.3011 395.874 74.6677 393.914Z" fill="#528700"/>
<path d="M70.2484 375.132C73.8515 375.841 75.3533 377.443 75.048 378.996C74.7427 380.548 72.745 381.462 69.1423 380.753C65.5392 380.044 62.0004 376.428 62.0004 376.428C62.0004 376.428 66.6453 374.422 70.2484 375.132Z" fill="#6DB500"/>
<path d="M101.786 361.898C100.085 365.153 98.1223 366.139 96.7202 365.407C95.3181 364.674 95.0069 362.5 96.7074 359.245C98.4079 355.99 102.878 353.621 102.878 353.621C102.878 353.621 103.486 358.643 101.786 361.898Z" fill="#76C400"/>
<path d="M87.9108 359.8C87.9636 363.472 86.7069 365.274 85.1252 365.296C83.543 365.319 82.2351 363.555 82.1824 359.883C82.1296 356.211 84.9339 352 84.9339 352C84.9339 352 87.8581 356.129 87.9108 359.8Z" fill="#76C400"/>
<path d="M74.5136 379.406C78.0283 380.47 79.3633 382.214 78.9051 383.729C78.4469 385.243 76.3686 385.954 72.8539 384.89C69.3392 383.826 66.1776 379.876 66.1776 379.876C66.1776 379.876 70.999 378.342 74.5136 379.406Z" fill="#76C400"/>
<path d="M84.5989 369.927C86.9815 372.721 87.1626 374.91 85.9591 375.937C84.7553 376.963 82.6221 376.439 80.2396 373.644C77.857 370.85 77.3306 365.818 77.3306 365.818C77.3306 365.818 82.216 367.133 84.5989 369.927Z" fill="#76C400"/>
<path d="M108.274 370.078C105.605 372.6 103.428 372.892 102.342 371.742C101.255 370.592 101.671 368.435 104.34 365.913C107.01 363.392 112.009 362.61 112.009 362.61C112.009 362.61 110.944 367.557 108.274 370.078Z" fill="#76C400"/>
<path d="M95.8434 376.09C96.1235 379.752 94.9806 381.627 93.4031 381.748C91.8255 381.869 90.4106 380.188 90.1308 376.527C89.8507 372.866 92.3893 368.489 92.3893 368.489C92.3893 368.489 95.5637 372.429 95.8434 376.09Z" fill="#76C400"/>
<path d="M101.541 384.423C98.0352 385.514 95.9514 384.82 95.4812 383.309C95.0109 381.798 96.332 380.044 99.8381 378.952C103.344 377.861 108.178 379.356 108.178 379.356C108.178 379.356 105.047 383.331 101.541 384.423Z" fill="#76C400"/>
<path d="M107.636 390.701C104.281 389.208 103.174 387.311 103.817 385.865C104.46 384.42 106.611 383.973 109.966 385.467C113.321 386.96 115.966 391.273 115.966 391.273C115.966 391.273 110.991 392.194 107.636 390.701Z" fill="#76C400"/>
<path d="M96.7869 391.441C93.8666 389.214 93.2265 387.113 94.1856 385.855C95.145 384.597 97.3406 384.658 100.261 386.885C103.181 389.111 104.761 393.918 104.761 393.918C104.761 393.918 99.7072 393.667 96.7869 391.441Z" fill="#76C400"/>
<path d="M92.5251 399.615C90.6442 396.461 90.832 394.273 92.1907 393.462C93.5493 392.652 95.5645 393.526 97.4454 396.68C99.3263 399.834 99.0023 404.883 99.0023 404.883C99.0023 404.883 94.406 402.769 92.5251 399.615Z" fill="#76C400"/>
<path d="M83.4549 398.749C84.9618 395.4 86.8632 394.3 88.3061 394.95C89.749 395.599 90.1866 397.752 88.6797 401.1C87.1728 404.449 82.8489 407.076 82.8489 407.076C82.8489 407.076 81.948 402.097 83.4549 398.749Z" fill="#76C400"/>
<path d="M80.58 384.747C83.9333 383.25 86.0846 383.694 86.7294 385.139C87.3742 386.584 86.2685 388.482 82.9153 389.979C79.562 391.476 74.5858 390.56 74.5858 390.56C74.5858 390.56 77.2268 386.244 80.58 384.747Z" fill="#76C400"/>
<path d="M78.4327 375.478C81.4422 377.582 82.1689 379.655 81.2626 380.952C80.3563 382.249 78.1596 382.278 75.1501 380.174C72.1405 378.07 70.364 373.333 70.364 373.333C70.364 373.333 75.4232 373.374 78.4327 375.478Z" fill="#76C400"/>
<path d="M90.1123 380.103C92.2043 383.121 92.1662 385.317 90.8661 386.219C89.566 387.12 87.4958 386.385 85.4038 383.367C83.3119 380.349 83.2902 375.289 83.2902 375.289C83.2902 375.289 88.0203 377.085 90.1123 380.103Z" fill="#76C400"/>
<path d="M99.3597 370.283C97.8221 372.721 96.224 373.367 95.1738 372.705C94.1235 372.043 94.0188 370.322 95.5563 367.884C97.0939 365.446 100.742 363.877 100.742 363.877C100.742 363.877 100.897 367.845 99.3597 370.283Z" fill="#7FD400"/>
<path d="M89.7432 364.209C90.3364 367.029 89.6396 368.606 88.4245 368.862C87.2093 369.118 85.936 367.955 85.3428 365.135C84.7496 362.314 86.2759 358.648 86.2759 358.648C86.2759 358.648 89.15 361.389 89.7432 364.209Z" fill="#7FD400"/>
<path d="M79.7455 361.525C81.2089 364.008 81.0526 365.725 79.983 366.356C78.9133 366.986 77.3354 366.292 75.8716 363.809C74.4077 361.326 74.6828 357.364 74.6828 357.364C74.6828 357.364 78.2817 359.043 79.7455 361.525Z" fill="#7FD400"/>
<path d="M78.0371 368.75C80.2202 370.631 80.6233 372.307 79.8125 373.248C79.0016 374.189 77.2844 374.037 75.1013 372.156C72.9182 370.274 71.9067 366.434 71.9067 366.434C71.9067 366.434 75.8539 366.868 78.0371 368.75Z" fill="#7FD400"/>
<path d="M82.9833 375.954C85.8559 375.721 87.3325 376.611 87.4334 377.848C87.5342 379.086 86.2206 380.203 83.348 380.436C80.4755 380.67 77.0306 378.694 77.0306 378.694C77.0306 378.694 80.1107 376.188 82.9833 375.954Z" fill="#7FD400"/>
<path d="M90.5853 385.816C93.4578 385.582 94.9345 386.472 95.0354 387.71C95.1363 388.947 93.8226 390.064 90.95 390.298C88.0774 390.531 84.6326 388.556 84.6326 388.556C84.6326 388.556 87.7127 386.05 90.5853 385.816Z" fill="#7FD400"/>
<path d="M72.8454 384.954C75.718 384.721 77.1946 385.61 77.2955 386.848C77.3964 388.086 76.0827 389.203 73.2101 389.436C70.3376 389.67 66.8927 387.694 66.8927 387.694C66.8927 387.694 69.9728 385.188 72.8454 384.954Z" fill="#7FD400"/>
<path d="M104.673 377.007C102.543 378.948 100.83 379.146 99.9937 378.228C99.1573 377.31 99.5142 375.623 101.645 373.682C103.775 371.741 107.709 371.199 107.709 371.199C107.709 371.199 106.804 375.066 104.673 377.007Z" fill="#7FD400"/>
<path d="M101.701 387.32C99.5703 389.261 97.8574 389.46 97.0213 388.542C96.1848 387.624 96.5417 385.937 98.6721 383.996C100.802 382.055 104.737 381.512 104.737 381.512C104.737 381.512 103.831 385.379 101.701 387.32Z" fill="#7FD400"/>
<path d="M97.0379 366.07C96.5623 368.913 95.3386 370.128 94.1138 369.923C92.8889 369.718 92.1273 368.171 92.603 365.329C93.0786 362.486 95.8364 359.629 95.8364 359.629C95.8364 359.629 97.5136 363.228 97.0379 366.07Z" fill="#7FD400"/>
<path d="M84.3439 364.688C85.1423 367.457 84.5627 369.081 83.3696 369.425C82.1766 369.769 80.8214 368.703 80.0234 365.933C79.2249 363.164 80.4789 359.396 80.4789 359.396C80.4789 359.396 83.5454 361.918 84.3439 364.688Z" fill="#7FD400"/>
<path d="M82.1975 391.727C84.2565 389.711 85.9605 389.45 86.8296 390.337C87.6987 391.224 87.403 392.923 85.3444 394.94C83.2854 396.957 79.3739 397.641 79.3739 397.641C79.3739 397.641 80.1385 393.744 82.1975 391.727Z" fill="#7FD400"/>
<path d="M96.0001 395.542C94.6364 393.004 94.8607 391.294 95.9547 390.706C97.0488 390.119 98.5976 390.875 99.9618 393.414C101.325 395.953 100.894 399.901 100.894 399.901C100.894 399.901 97.3639 398.081 96.0001 395.542Z" fill="#7FD400"/>
<path d="M103.63 398.427C101.809 396.192 101.706 394.471 102.669 393.687C103.632 392.903 105.296 393.352 107.116 395.586C108.936 397.821 109.26 401.779 109.26 401.779C109.26 401.779 105.45 400.661 103.63 398.427Z" fill="#7FD400"/>
<path d="M111.766 374.495C108.998 375.297 107.374 374.72 107.028 373.528C106.682 372.335 107.746 370.979 110.514 370.176C113.283 369.374 117.052 370.622 117.052 370.622C117.052 370.622 114.535 373.693 111.766 374.495Z" fill="#7FD400"/>
<path d="M75.6479 391.041C79.2789 390.494 81.2335 391.497 81.469 393.061C81.7045 394.626 80.1321 396.16 76.501 396.706C72.8699 397.253 68.319 395.042 68.319 395.042C68.319 395.042 72.0168 391.588 75.6479 391.041Z" fill="#76C400"/>
<path d="M90.7625 361.411C90.0661 360.399 87.7561 359.408 86.5149 359.595C86.4338 360.393 87.5112 361.621 88.0044 362.207C88.2402 362.487 89.1283 363.004 89.2106 363.368C89.3673 364.06 87.6943 365.107 87.2854 365.533C86.8874 365.947 86.3461 366.332 86.1696 366.876C86.6802 366.948 87.1093 366.757 87.5989 366.647C88.2449 366.502 88.8932 366.579 89.5283 366.466C90.0831 366.369 90.8653 366.021 91.3041 365.744C91.694 366.657 92.3237 367.589 92.7745 368.508C92.8432 368.648 93.0271 369.221 93.2606 369.195C93.7615 369.14 93.8422 367.059 93.8675 366.614C93.8946 366.132 93.7336 365.026 93.9373 364.585C94.1957 364.026 95.3654 363.803 95.9132 363.606C96.5029 363.394 97.7495 363.167 98.1833 362.752C98.3268 362.614 98.6279 361.852 98.5429 361.682C98.1468 360.892 94.8335 361.652 94.0898 361.613C94.5212 360.963 94.8571 360.329 95.1885 359.626C95.5043 358.955 96.191 357.917 96.2248 357.166C96.2608 356.361 95.5183 356.411 94.9801 356.888C94.1421 357.632 93.5606 358.747 92.7074 359.538C92.2632 359.949 91.6955 360.397 91.4379 360.939L90.7625 361.411Z" fill="#FFB808"/>
<path d="M90.0867 363.078C90.0177 361.505 90.4557 359.865 90.9957 358.445C91.4361 358.406 91.7573 359.522 91.8888 359.845C92.1076 360.381 92.0964 361.106 92.3847 361.595C92.5496 361.876 92.5127 361.886 92.8293 361.756C93.3345 361.549 93.9342 360.924 94.406 360.615C95.0256 360.208 95.9122 359.878 96.6582 359.985C96.7428 360.653 95.809 361.415 95.3593 361.799C95.1242 362 94.3564 362.469 94.264 362.798C94.1426 363.231 94.8778 364.118 95.0869 364.533C95.3438 365.041 95.641 365.527 95.6705 366.09C94.8933 366.215 93.8346 365.384 93.0291 365.292C92.5519 365.237 92.1158 365.337 91.6708 365.394C91.2844 366.859 90.4712 367.687 89.4271 368.756C89.3286 368.105 89.272 367.418 89.2386 366.761C89.2176 366.348 89.3399 365.775 89.2308 365.372C89.0477 364.693 87.8023 364.351 87.2064 364.012C86.4882 363.603 86.9107 363.366 87.6242 363.166C88.2174 363 88.7474 363.039 89.3209 363.123L90.0867 363.078Z" fill="#F5B108"/>
<path d="M91.1228 362.222C90.7837 361.574 89.5705 360.8 88.8318 360.785C88.8613 361.959 90.232 363.094 90.0345 364.333C89.4029 364.368 89.0134 364.395 88.4287 364.712C87.8017 365.051 87.271 365.593 86.7076 365.998C87.7253 366.101 88.9936 365.891 89.9926 365.682C90.3786 365.6 90.67 365.491 91.0572 365.627C91.9492 365.94 92.4543 367.316 93.0537 368.027C93.1178 367.119 93.0196 366.316 93.2182 365.416C93.3102 364.999 93.361 364.501 93.659 364.169C94.0373 363.748 94.6588 363.678 95.1779 363.506C95.9616 363.246 97.0371 362.955 97.7339 362.572C97.0995 361.984 95.6838 361.527 94.783 361.501C94.305 361.487 94.2479 361.586 94.0311 361.23C93.813 360.872 93.8091 360.211 93.6741 359.792C92.6456 359.706 91.9042 361.045 91.2132 361.591L91.1228 362.222Z" fill="#FFC126"/>
<path d="M92.9699 362.357C92.812 361.87 91.9266 360.759 91.3997 360.603C91.4203 361.191 91.321 362.539 90.6766 362.761C90.3173 362.884 88.7821 362.506 89.1487 363.323C89.4292 363.947 90.4736 364.2 90.2808 365.06C90.1986 365.426 89.9565 365.66 89.9511 366.061C89.9456 366.465 90.0884 366.606 90.2281 366.946C90.5222 366.963 90.715 366.508 90.907 366.289C91.2387 365.913 91.6022 365.569 92.0015 365.264C92.3662 364.986 92.6696 364.795 93.1468 364.89C93.4312 364.947 93.9518 365.349 94.2226 365.156C94.6207 364.873 94.3061 363.416 94.2843 363.096C94.2405 362.445 94.3274 362.393 94.7208 361.962C94.8834 361.783 95.3908 361.05 95.2259 360.779C94.9579 360.338 92.8422 361.731 92.9699 362.357Z" fill="#FFB600"/>
<path d="M74.3252 376.235C73.7611 375.415 71.8895 374.612 70.8839 374.764C70.8183 375.41 71.6912 376.405 72.0908 376.88C72.2817 377.107 73.0014 377.526 73.0681 377.82C73.1954 378.382 71.8398 379.23 71.5085 379.575C71.1861 379.91 70.7477 380.222 70.6045 380.663C71.0181 380.721 71.3661 380.567 71.7626 380.478C72.286 380.361 72.8113 380.422 73.3258 380.331C73.7754 380.252 74.409 379.971 74.7644 379.746C75.0806 380.485 75.5904 381.241 75.9559 381.985C76.0113 382.099 76.1607 382.563 76.3496 382.542C76.7554 382.498 76.821 380.811 76.8412 380.451C76.8633 380.06 76.7326 379.164 76.8979 378.807C77.107 378.354 78.0552 378.174 78.499 378.014C78.9766 377.842 79.9869 377.659 80.338 377.322C80.4544 377.21 80.6984 376.593 80.6294 376.455C80.3085 375.815 77.6241 376.431 77.0212 376.399C77.3708 375.873 77.6431 375.359 77.9116 374.789C78.1673 374.245 78.7237 373.405 78.7512 372.796C78.7803 372.144 78.1789 372.184 77.7429 372.571C77.0639 373.173 76.5925 374.077 75.9015 374.717C75.5419 375.051 75.0818 375.414 74.873 375.852L74.3252 376.235Z" fill="#FFB808"/>
<path d="M73.7777 377.586C73.7218 376.311 74.0768 374.982 74.5141 373.832C74.871 373.801 75.1309 374.705 75.2376 374.966C75.4149 375.401 75.4056 375.988 75.6392 376.384C75.773 376.612 75.7432 376.62 75.9996 376.515C76.4089 376.347 76.8947 375.841 77.2772 375.59C77.7793 375.261 78.4974 374.993 79.1018 375.08C79.1701 375.621 78.414 376.238 78.0493 376.549C77.8588 376.712 77.2369 377.092 77.162 377.359C77.0634 377.709 77.659 378.429 77.8289 378.764C78.0369 379.176 78.2778 379.571 78.3015 380.026C77.6722 380.128 76.814 379.455 76.1614 379.38C75.7746 379.335 75.4216 379.416 75.0607 379.462C74.7476 380.649 74.0888 381.32 73.2431 382.186C73.1631 381.659 73.1173 381.103 73.0902 380.57C73.0731 380.236 73.172 379.771 73.084 379.445C72.9354 378.895 71.9267 378.618 71.444 378.343C70.8625 378.011 71.2042 377.819 71.7823 377.657C72.263 377.522 72.6925 377.555 73.1569 377.622L73.7777 377.586Z" fill="#F5B108"/>
<path d="M74.6173 376.892C74.3426 376.367 73.3599 375.741 72.7613 375.728C72.7853 376.679 73.8957 377.599 73.7355 378.603C73.2237 378.631 72.9083 378.653 72.4342 378.91C71.9259 379.184 71.4965 379.624 71.0398 379.952C71.8643 380.036 72.892 379.866 73.7013 379.696C74.014 379.63 74.2503 379.542 74.5638 379.652C75.2866 379.905 75.6955 381.021 76.1812 381.596C76.2332 380.861 76.1537 380.21 76.3143 379.48C76.3888 379.143 76.43 378.739 76.6713 378.471C76.9778 378.129 77.4814 378.073 77.9019 377.933C78.5367 377.723 79.408 377.487 79.9725 377.177C79.4585 376.7 78.3116 376.33 77.5818 376.309C77.1946 376.297 77.1485 376.378 76.9727 376.089C76.7962 375.799 76.7927 375.264 76.6837 374.924C75.8503 374.854 75.2497 375.939 74.6899 376.382L74.6173 376.892Z" fill="#FFC126"/>
<path d="M76.1141 377.002C75.9861 376.607 75.2691 375.707 74.8419 375.581C74.8586 376.057 74.7783 377.15 74.256 377.329C73.9651 377.429 72.7212 377.122 73.018 377.784C73.245 378.29 74.0916 378.495 73.9352 379.191C73.8685 379.488 73.6725 379.678 73.6679 380.003C73.6632 380.33 73.7792 380.444 73.8921 380.72C74.1303 380.733 74.2867 380.364 74.4423 380.187C74.7112 379.882 75.0056 379.604 75.3292 379.357C75.6248 379.131 75.8705 378.977 76.2569 379.054C76.4873 379.1 76.909 379.425 77.1286 379.269C77.451 379.04 77.1962 377.86 77.1787 377.6C77.143 377.073 77.2136 377.031 77.5321 376.681C77.6641 376.536 78.0749 375.942 77.9414 375.723C77.7246 375.366 76.0105 376.495 76.1141 377.002Z" fill="#FFB600"/>
<path d="M94.0079 383.601C93.5054 382.871 91.8391 382.156 90.944 382.291C90.8854 382.867 91.663 383.753 92.0187 384.175C92.1891 384.377 92.8296 384.75 92.8889 385.013C93.0022 385.512 91.7952 386.268 91.5004 386.574C91.2133 386.873 90.823 387.151 90.6953 387.543C91.0635 387.595 91.3735 387.457 91.7266 387.378C92.1925 387.274 92.6604 387.328 93.1182 387.248C93.5186 387.177 94.0828 386.926 94.3993 386.726C94.6806 387.385 95.1349 388.057 95.4601 388.72C95.5097 388.821 95.6424 389.234 95.8108 389.216C96.172 389.176 96.2306 387.675 96.2484 387.354C96.2682 387.006 96.1518 386.208 96.2989 385.89C96.4851 385.487 97.3293 385.326 97.7243 385.184C98.1495 385.031 99.0488 384.867 99.3619 384.567C99.4655 384.468 99.6828 383.918 99.6215 383.796C99.3359 383.226 96.9456 383.775 96.409 383.746C96.7202 383.277 96.9627 382.82 97.2017 382.313C97.4294 381.829 97.9249 381.08 97.9493 380.538C97.9753 379.957 97.4399 379.993 97.0515 380.338C96.447 380.874 96.0273 381.679 95.4119 382.249C95.0915 382.546 94.6818 382.869 94.4963 383.26L94.0079 383.601Z" fill="#FFB808"/>
<path d="M93.5206 384.804C93.4705 383.669 93.7867 382.486 94.1762 381.462C94.494 381.433 94.7256 382.239 94.8207 382.472C94.9786 382.858 94.9704 383.381 95.1784 383.734C95.2975 383.937 95.2707 383.944 95.4992 383.85C95.8635 383.701 96.2961 383.25 96.6368 383.027C97.0837 382.734 97.7235 382.496 98.2612 382.573C98.3222 383.054 97.6486 383.604 97.3243 383.881C97.1547 384.026 96.6007 384.364 96.5343 384.602C96.4467 384.914 96.977 385.555 97.128 385.854C97.3134 386.22 97.528 386.571 97.5489 386.977C96.9883 387.067 96.2248 386.468 95.6436 386.401C95.2991 386.362 94.9848 386.434 94.6636 386.475C94.3846 387.532 93.7984 388.129 93.0449 388.9C92.9735 388.431 92.9328 387.935 92.9087 387.461C92.8936 387.163 92.9817 386.75 92.9029 386.459C92.7706 385.97 91.8725 385.723 91.4426 385.478C90.9247 385.183 91.2292 385.012 91.744 384.868C92.172 384.748 92.5545 384.777 92.9681 384.837L93.5206 384.804Z" fill="#F5B108"/>
<path d="M94.2682 384.186C94.0238 383.719 93.1485 383.161 92.6154 383.15C92.6368 383.997 93.6253 384.815 93.4829 385.71C93.0275 385.735 92.7462 385.755 92.3245 385.983C91.8721 386.228 91.4896 386.619 91.083 386.911C91.817 386.985 92.7322 386.834 93.4527 386.683C93.7312 386.624 93.9415 386.546 94.2205 386.643C94.8637 386.869 95.2285 387.862 95.6607 388.375C95.7068 387.72 95.6362 387.141 95.7794 386.491C95.8457 386.19 95.8822 385.831 96.0971 385.592C96.3699 385.288 96.8184 385.237 97.1928 385.113C97.758 384.925 98.534 384.716 99.0364 384.439C98.5786 384.015 97.5575 383.686 96.9076 383.667C96.5627 383.656 96.5216 383.728 96.3652 383.471C96.2077 383.213 96.205 382.736 96.108 382.434C95.3662 382.371 94.8312 383.338 94.3326 383.732L94.2682 384.186Z" fill="#FFC126"/>
<path d="M95.6009 384.284C95.4868 383.932 94.8483 383.131 94.468 383.019C94.4828 383.443 94.4114 384.416 93.9462 384.575C93.6871 384.664 92.5798 384.391 92.844 384.98C93.0461 385.431 93.7999 385.613 93.6606 386.233C93.6013 386.498 93.4267 386.666 93.4228 386.956C93.419 387.247 93.5221 387.349 93.6226 387.594C93.8344 387.606 93.9738 387.278 94.1123 387.12C94.3516 386.848 94.6139 386.601 94.9018 386.381C95.1648 386.18 95.3836 386.043 95.7278 386.111C95.933 386.152 96.3086 386.442 96.5037 386.303C96.7908 386.099 96.5639 385.048 96.5483 384.817C96.5165 384.347 96.5794 384.309 96.8634 383.998C96.9805 383.869 97.3468 383.34 97.2277 383.144C97.0349 382.827 95.5086 383.833 95.6009 384.284Z" fill="#FFB600"/>
<path d="M106.302 375.671C105.8 374.94 104.133 374.225 103.238 374.36C103.18 374.936 103.957 375.822 104.313 376.244C104.483 376.447 105.124 376.819 105.183 377.082C105.296 377.581 104.089 378.337 103.794 378.643C103.507 378.942 103.117 379.22 102.989 379.612C103.358 379.664 103.668 379.526 104.021 379.447C104.487 379.343 104.955 379.398 105.412 379.317C105.813 379.246 106.377 378.996 106.693 378.795C106.975 379.454 107.429 380.127 107.754 380.789C107.804 380.89 107.936 381.304 108.105 381.285C108.466 381.245 108.525 379.744 108.543 379.423C108.562 379.076 108.446 378.277 108.593 377.959C108.779 377.556 109.623 377.395 110.018 377.253C110.444 377.1 111.343 376.937 111.656 376.637C111.76 376.537 111.977 375.988 111.916 375.865C111.63 375.295 109.24 375.844 108.703 375.815C109.014 375.347 109.257 374.889 109.496 374.382C109.724 373.898 110.219 373.15 110.243 372.607C110.269 372.026 109.734 372.062 109.346 372.407C108.741 372.943 108.321 373.748 107.706 374.318C107.386 374.615 106.976 374.939 106.79 375.329L106.302 375.671Z" fill="#FFB808"/>
<path d="M105.814 376.873C105.764 375.739 106.08 374.555 106.47 373.531C106.788 373.503 107.019 374.308 107.114 374.541C107.272 374.928 107.264 375.451 107.472 375.804C107.591 376.006 107.564 376.013 107.793 375.92C108.157 375.77 108.59 375.32 108.93 375.096C109.377 374.803 110.017 374.565 110.555 374.642C110.616 375.124 109.943 375.674 109.618 375.951C109.449 376.095 108.895 376.434 108.828 376.671C108.741 376.984 109.271 377.624 109.422 377.923C109.607 378.289 109.822 378.641 109.843 379.046C109.282 379.136 108.518 378.537 107.937 378.471C107.592 378.431 107.278 378.503 106.957 378.544C106.678 379.602 106.092 380.199 105.338 380.97C105.267 380.5 105.226 380.005 105.202 379.531C105.187 379.233 105.275 378.819 105.197 378.528C105.064 378.039 104.166 377.792 103.736 377.547C103.218 377.252 103.523 377.081 104.038 376.937C104.466 376.817 104.848 376.846 105.262 376.906L105.814 376.873Z" fill="#F5B108"/>
<path d="M106.562 376.256C106.317 375.788 105.442 375.23 104.909 375.219C104.93 376.066 105.919 376.885 105.777 377.779C105.321 377.804 105.04 377.824 104.618 378.052C104.166 378.297 103.783 378.688 103.377 378.98C104.111 379.055 105.026 378.903 105.746 378.752C106.025 378.693 106.235 378.615 106.514 378.713C107.158 378.939 107.522 379.931 107.954 380.444C108 379.789 107.93 379.21 108.073 378.56C108.139 378.26 108.176 377.9 108.391 377.661C108.664 377.357 109.112 377.307 109.486 377.183C110.052 376.995 110.828 376.785 111.33 376.509C110.872 376.084 109.851 375.755 109.201 375.736C108.856 375.726 108.815 375.798 108.659 375.54C108.501 375.282 108.499 374.805 108.401 374.503C107.659 374.44 107.124 375.407 106.626 375.801L106.562 376.256Z" fill="#FFC126"/>
<path d="M107.894 376.353C107.78 376.002 107.142 375.201 106.762 375.088C106.776 375.512 106.705 376.485 106.24 376.645C105.981 376.734 104.873 376.461 105.137 377.05C105.34 377.5 106.093 377.683 105.954 378.303C105.895 378.567 105.72 378.736 105.716 379.025C105.712 379.316 105.816 379.418 105.916 379.664C106.128 379.675 106.267 379.347 106.406 379.19C106.646 378.918 106.908 378.67 107.196 378.45C107.459 378.249 107.678 378.112 108.022 378.181C108.227 378.221 108.603 378.511 108.798 378.372C109.085 378.168 108.858 377.117 108.843 376.886C108.811 376.417 108.874 376.379 109.158 376.067C109.275 375.939 109.641 375.409 109.522 375.214C109.329 374.896 107.802 375.902 107.894 376.353Z" fill="#FFB600"/>
<defs>
<linearGradient id="paint0_linear_1_1086" x1="91.0752" y1="384.35" x2="91.0752" y2="401.633" gradientUnits="userSpaceOnUse">
<stop stop-color="#F0DB22"/>
<stop offset="0.0775" stop-color="#E9D61F"/>
<stop offset="0.6958" stop-color="#B7B109"/>
<stop offset="1" stop-color="#A3A300"/>
</linearGradient>
<linearGradient id="paint1_linear_1_1086" x1="76.1073" y1="413.491" x2="106.043" y2="413.491" gradientUnits="userSpaceOnUse">
<stop stop-color="#F0DB22"/>
<stop offset="0.3864" stop-color="#D3BA12"/>
<stop offset="0.7727" stop-color="#BC9F05"/>
<stop offset="1" stop-color="#B39500"/>
</linearGradient>
<linearGradient id="paint2_linear_1_1086" x1="76.4676" y1="432.156" x2="105.66" y2="432.156" gradientUnits="userSpaceOnUse">
<stop stop-color="#D3CB30"/>
<stop offset="0.3668" stop-color="#BDAD1A"/>
<stop offset="0.765" stop-color="#AA9207"/>
<stop offset="1" stop-color="#A38800"/>
</linearGradient>
</defs>
</svg>
